<?xml version="1.0" standalone="no"?><!DOCTYPE svg PUBLIC "-//W3C//DTD SVG 1.1//EN" "http://www.w3.org/Graphics/SVG/1.1/DTD/svg11.dtd"><svg t="1727342795391" class="icon" viewBox="0 0 1024 1024" version="1.1" xmlns="http://www.w3.org/2000/svg" p-id="1541" xmlns:xlink="http://www.w3.org/1999/xlink" width="200" height="200"><path d="M302.08 414.72l-71.68 71.68L460.8 716.8l512-512-71.68-71.68L460.8 573.44 302.08 414.72zM921.6 512c0 225.28-184.32 409.6-409.6 409.6-225.28 0-409.6-184.32-409.6-409.6 0-225.28 184.32-409.6 409.6-409.6 40.96 0 76.8 5.12 112.64 15.433143L706.56 35.913143C645.12 15.36 578.56 0 512 0 230.4 0 0 230.4 0 512c0 281.673143 230.4 512.073143 512 512.073143s512-230.4 512-512h-102.4z" fill="#1296db" p-id="1542"></path></svg>