<svg t="1727594454701" class="icon" viewBox="0 0 1024 1024" version="1.1" xmlns="http://www.w3.org/2000/svg" p-id="6721" width="200" height="200"><path d="M512.004663 113.800127c-53.96066101 0-105.507629 10.422764-154.686619 31.478576-49.178989 21.055812-91.52832601 49.508129-127.08458 84.97295499-35.565397 35.656824-63.908001 77.951304-84.936384 127.075437-21.07409799 49.30698801-31.59743198 100.707672-31.597432 154.75976101 0 53.869233 10.523335 105.45277301 31.597432 154.57690598 21.02838401 49.31613101 49.370988 91.610611 84.936384 127.26743504 35.55625401 35.473969 77.90558999 63.72514501 127.08458 84.96381297a392.206784 392.206784 0 0 0 154.686619 31.48771901c53.942376 0 105.489344-10.623905 154.668333-31.48771901 49.178989-21.238668 91.52832601-49.49898699 127.08458-84.96381301 35.565397-35.656824 63.908001-77.951304 84.936384-127.26743496 21.110669-49.124133 31.59743198-100.707672 31.597432-154.57690602 0-54.052089-10.486764-105.45277301-31.597432-154.75976099-21.02838401-49.124133-49.370988-91.427755-84.936384-127.08457903-35.55625401-35.455683-77.90558999-63.908001-127.08458-84.96381298C617.494007 124.23203401 565.937896 113.800127 511.99552 113.800127m0-113.800127c69.320524 0 135.678789 13.467308 198.87365298 40.59392298 63.24057799 27.11747199 117.68580601 63.533147 163.31739902 109.23788202 45.66816399 45.521879 82.04726701 99.957965 109.128168 163.29911299 27.090044 63.158293 40.64878001 129.54398599 40.66706601 198.76394 0.05485699 69.42109398-13.558736 135.806787-40.66706601 198.965081-27.099187 63.341149-63.47828999 117.77723402-109.128168 163.28997001-45.613307 45.71387799-100.021964 82.12955201-163.31739899 109.25616799C647.592024 1010.331551 581.306901 1023.990857 512.004663 1023.990857c-69.30223801 0-135.587361-13.65930702-198.87365299-40.59392298-63.31372-27.11747199-117.740663-63.533147-163.33568501-109.23788202C104.136304 828.637173 67.76634401 774.201087 40.667157 710.85079599 13.55882799 647.70164601-0.054765 581.315953 0.000091 511.904001c0.01828601-69.229096 13.57702199-135.61478901 40.667066-198.76393999 27.080901-63.35943402 63.45086201-117.786377 109.128168-163.30825601 45.62245001-45.71387799 100.076821-82.12041001 163.33568501-109.247025C376.316731 13.467308 442.665853 0 511.99552 0" fill="#1296db" p-id="6722"></path></svg>